<?xml version="1.0" standalone="no"?><!DOCTYPE svg PUBLIC "-//W3C//DTD SVG 1.1//EN" "http://www.w3.org/Graphics/SVG/1.1/DTD/svg11.dtd"><svg t="1542348436359" class="icon" style="" viewBox="0 0 1024 1024" version="1.1" xmlns="http://www.w3.org/2000/svg" p-id="3568" xmlns:xlink="http://www.w3.org/1999/xlink" width="200" height="200"><defs><style type="text/css"></style></defs><path d="M180.440645 107.449541l175.819035 0c36.389788 0 65.773266 29.339488 65.773266 65.773246l0 196.553737c0 36.347356-29.469899 65.774745-65.773266 65.774745L180.440645 435.551268c-36.346317 0-65.773745-29.340967-65.773745-65.774745l0-196.553737C114.6669 136.876949 144.138298 107.449541 180.440645 107.449541zM70.788609 369.776504c0 60.585203 49.045367 109.521145 109.652056 109.521145l175.819035 0c60.562718 0 109.696026-49.045347 109.696026-109.521145l0-196.553737c0-60.585203-49.045847-109.520145-109.696026-109.520145L180.440645 63.702622c-60.606689 0-109.652056 49.045387-109.652056 109.520145L70.788589 369.776504zM180.440645 588.664398l175.819035 0c36.389788 0 65.773266 29.339488 65.773266 65.773266l0 196.576221c0 36.346837-29.469899 65.774225-65.773266 65.774225L180.440645 916.78811c-36.346317 0-65.773745-29.339488-65.773745-65.774225l0-196.576221C114.6669 618.091826 144.138298 588.664398 180.440645 588.664398zM70.788609 851.013865c0 60.562758 49.045367 109.522144 109.652056 109.522144l175.819035 0c60.562718 0 109.696026-49.046347 109.696026-109.522144l0-196.576221c0-60.561719-49.045847-109.476175-109.696026-109.476175L180.440645 544.961468c-60.606689 0-109.652056 49.045387-109.652056 109.476175L70.788589 851.013865zM926.940039 194.942821c12.172927 0 21.982356-9.787484 21.982356-21.87345 0-12.086465-9.809449-21.87345-21.982356-21.87345L553.755318 151.195921c-12.129936 0-21.982396 9.786984-21.982396 21.87345 0 12.085966 9.85246 21.87345 21.982396 21.87345L926.940039 194.942821zM926.940039 304.30957c12.172927 0 21.982356-9.786485 21.982356-21.87345 0-12.085466-9.809449-21.87295-21.982356-21.87295L553.755318 260.56317c-12.129936 0-21.982396 9.787484-21.982396 21.87295 0 12.086965 9.85246 21.87345 21.982396 21.87345L926.940039 304.30957zM926.940039 413.677798c12.172927 0 21.982356-9.787964 21.982356-21.874429 0-12.06448-9.809449-21.87345-21.982356-21.87345L553.755318 369.92992c-12.129936 0-21.982396 9.80897-21.982396 21.87345 0 12.086445 9.85246 21.874429 21.982396 21.874429L926.940039 413.677798zM926.940039 654.307731c12.172927 0 21.982356-9.809489 21.982356-21.852444 0-12.085986-9.809449-21.894456-21.982356-21.894456L553.755318 610.560832c-12.129936 0-21.982396 9.80847-21.982396 21.894456 0 12.042975 9.85246 21.852444 21.982396 21.852444L926.940039 654.307731zM926.940039 763.653015c12.172927 0 21.982356-9.766498 21.982356-21.852444 0-12.086965-9.809449-21.851505-21.982356-21.851505L553.755318 719.949067c-12.129936 0-21.982396 9.76456-21.982396 21.851505 0 12.085946 9.85246 21.852444 21.982396 21.852444L926.940039 763.653015zM926.940039 873.04119c12.172927 0 21.982356-9.809449 21.982356-21.895395s-9.809449-21.851445-21.982356-21.851445L553.755318 829.29435c-12.129936 0-21.982396 9.765479-21.982396 21.851445s9.85246 21.895395 21.982396 21.895395L926.940039 873.04119z" p-id="3569"></path></svg>