<?xml version="1.0" standalone="no"?><!DOCTYPE svg PUBLIC "-//W3C//DTD SVG 1.1//EN" "http://www.w3.org/Graphics/SVG/1.1/DTD/svg11.dtd"><svg t="1542348716936" class="icon" style="" viewBox="0 0 1024 1024" version="1.1" xmlns="http://www.w3.org/2000/svg" p-id="4446" xmlns:xlink="http://www.w3.org/1999/xlink" width="200" height="200"><defs><style type="text/css"></style></defs><path d="M139.679249 958.784696 139.679249 65.215304l612.846826 0 131.793652 133.208884 0 760.360508L139.679249 958.784696zM288.60714 258.498402 249.117754 297.989835l92.143607 92.143607 39.49041-39.49041L288.60714 258.498402zM381.688095 437.536055 232.759181 437.536055l0 55.847959 93.079932 0 0 186.159864-93.079932 74.463945 37.231973 55.847959 74.463945-55.847959 55.847959 55.847959 390.936737 0 0-55.847959L437.536055 754.007823l-55.847959-74.463945L381.688095 437.536055zM760.172219 539.313066l-43.779086-34.6778-57.795311 72.961732-87.555102-69.357648-34.679847 43.777039 218.887242 173.391049 34.675754-43.777039-87.553055-69.355601L760.172219 539.313066zM418.920068 642.311905l37.231973 74.463945 151.718447-52.868091-21.406542-58.82885-93.079932 20.684088L493.384014 493.384014l260.623809 0L754.007823 269.991154 437.536055 269.991154l0 368.183524L418.920068 642.311905zM735.391836 83.83129l0 130.311905 130.311905 0L735.391836 83.83129zM698.159864 363.072109 493.384014 363.072109l0-55.847959 204.77585 0L698.159864 363.072109zM698.159864 456.152041 493.384014 456.152041l0-55.847959 204.77585 0L698.159864 456.152041z" p-id="4447"></path></svg>