<?xml version="1.0" standalone="no"?><!DOCTYPE svg PUBLIC "-//W3C//DTD SVG 1.1//EN" "http://www.w3.org/Graphics/SVG/1.1/DTD/svg11.dtd"><svg t="1542348354103" class="icon" style="" viewBox="0 0 1024 1024" version="1.1" xmlns="http://www.w3.org/2000/svg" p-id="2835" xmlns:xlink="http://www.w3.org/1999/xlink" width="200" height="200"><defs><style type="text/css"></style></defs><path d="M917.302111 28.436624H759.088199s1.759692 129.777289-62.222712 129.777289S359.286164 161.750894 334.210552 161.750894c-37.375859 0-65.777289-39.117954-67.554578-133.331867H108.442062S30.22375 64 30.22375 113.764091v827.055266s14.218312 83.180643 58.668133 83.180643h839.073962s65.777289-31.111356 65.777289-83.110256v-827.055265S956.420065 28.507011 917.302111 28.507011z m-133.331867 741.147099H243.551217v-81.456145h540.419027v81.473742z m0-202.663734H243.551217v-81.385757h540.419027v81.473742z m0-186.808908H243.551217v-81.456146h540.419027v81.473742z" p-id="2836"></path><path d="M406.199554 108.432224H630.27874a54.216112 54.216112 0 0 0 54.216112-54.216112A54.216112 54.216112 0 0 0 630.27874 0H406.199554a54.216112 54.216112 0 0 0-54.216112 54.216112 54.216112 54.216112 0 0 0 54.216112 54.216112z" p-id="2837"></path></svg>