<?xml version="1.0" standalone="no"?><!DOCTYPE svg PUBLIC "-//W3C//DTD SVG 1.1//EN" "http://www.w3.org/Graphics/SVG/1.1/DTD/svg11.dtd"><svg t="1542348186298" class="icon" style="" viewBox="0 0 1024 1024" version="1.1" xmlns="http://www.w3.org/2000/svg" p-id="1971" xmlns:xlink="http://www.w3.org/1999/xlink" width="200" height="200"><defs><style type="text/css"></style></defs><path d="M769.066667 471.082667H233.088a133.973333 133.973333 0 0 1 0-267.946667h341.12a100.181333 100.181333 0 0 0 94.336 66.986667 100.224 100.224 0 0 0 94.336-66.986667h173.653333a33.450667 33.450667 0 1 0 0-66.986667h-173.653333a100.181333 100.181333 0 0 0-94.336-66.986666 100.224 100.224 0 0 0-94.336 66.986666H233.088a200.96 200.96 0 1 0 0 402.005334h535.978667a133.973333 133.973333 0 0 1 0 267.946666H427.946667a100.181333 100.181333 0 0 0-94.336-66.986666 100.224 100.224 0 0 0-94.336 66.986666h-173.653334a33.493333 33.493333 0 0 0 0 66.986667h173.653334a100.181333 100.181333 0 0 0 94.336 66.986667 100.224 100.224 0 0 0 94.336-66.986667h341.12a200.96 200.96 0 1 0 0-402.005333zM668.544 136.106667a33.536 33.536 0 1 1 0 67.029333 33.536 33.536 0 0 1 0-67.029333zM333.568 873.045333a33.493333 33.493333 0 1 1 0-66.986666 33.493333 33.493333 0 0 1 0 66.986666z m0 0" p-id="1972"></path></svg>